<?xml version="1.0" encoding="utf-8"?>
<!-- Generator: Adobe Illustrator 24.3.0, SVG Export Plug-In . SVG Version: 6.00 Build 0)  -->
<svg version="1.1" xmlns="http://www.w3.org/2000/svg" xmlns:xlink="http://www.w3.org/1999/xlink" x="0px" y="0px"
	 viewBox="0 0 200 200" style="enable-background:new 0 0 200 200;" xml:space="preserve">
<style type="text/css">
	.st0{fill:#FFEC89;}
	.st1{clip-path:url(#SVGID_2_);}
	.st2{fill:#D7877A;}
	.st3{fill:#B5675C;}
	.st4{fill:#724A45;}
	.st5{fill:#FFFFFF;}
	.st6{fill:#3C1E18;}
	.st7{fill:#2F8C82;}
	.st8{fill:#36B7A9;}
</style>
<g id="Calque_1">
</g>
<g id="Calque_4">
	<g>
		<path class="st0" d="M12.39,101.7c0-48.35,39.19-87.54,87.54-87.54c48.35,0,87.54,39.19,87.54,87.54s-39.19,87.54-87.54,87.54
			C51.58,189.23,12.39,150.04,12.39,101.7z"/>
		<g>
			<defs>
				<path id="SVGID_1_" d="M12.39,101.7c0-48.35,39.19-87.54,87.54-87.54c48.35,0,87.54,39.19,87.54,87.54s-39.19,87.54-87.54,87.54
					C51.58,189.23,12.39,150.04,12.39,101.7z"/>
			</defs>
			<clipPath id="SVGID_2_">
				<use xlink:href="#SVGID_1_"  style="overflow:visible;"/>
			</clipPath>
			<g class="st1">
				<g>
					<g>
						<path class="st2" d="M73.94,137.74c3.23-0.5,10.45-4.04,12.43-6.78c2.24-2.73,4.48-25.55,4.48-25.55
							c5.22,0.99,14.92,1.49,19.9-0.75c0.5,6.96,0,13.43,1.49,20.14c0.5,3.48,0.99,5.97,3.73,7.96c2.49,1.99,6.47,2.98,9.2,4.48
							c-3.48,5.47-6.47,11.69-11.19,15.92c-4.23,3.98-9.2,7.46-12.68,11.69L73.94,137.74z"/>
					</g>
					<g>
						<path class="st3" d="M90.13,109.18c0.19,5.57,4.41,16.32,9.98,18.43c6.14,2.11,10.75-15.74,10.75-19.96l0,0L90.13,109.18z"/>
					</g>
				</g>
				<g>
					<g>
						<path class="st3" d="M74.87,77.94c-4.03-1.58-9.65,0.14-10.37,5.04c-1.01,6.62,4.03,14.4,11.09,13.53
							c2.45-0.29,4.17-1.58,6.33-2.59L74.87,77.94z"/>
					</g>
					<g>
						<path class="st3" d="M122.11,77.94c4.03-1.58,9.65,0.14,10.37,5.04c1.01,6.62-4.03,14.4-11.09,13.53
							c-2.45-0.29-4.18-1.58-6.33-2.59L122.11,77.94z"/>
					</g>
				</g>
				<g>
					<g>
						<g>
							<path class="st2" d="M121.23,59.46c-4.8-0.77-3.07-9.21-3.65-13.05c-5.38,2.11-33.4,2.69-38.2,0.38
								c0,3.46,0.58,7.87-0.96,10.94c-0.77,1.73-3.46,3.65-3.46,3.65s0.38,3.65,0.58,4.99c0.49,3.42,1.38,9.45-0.94,12.61
								c1.77,9.23,3.97,17.92,4.45,20.41c1.15,5.38,2.69,6.14,6.72,9.21c4.21,3.21,10.94,7.49,15.74,7.87
								c0,0,12.86-7.87,14.78-10.18c2.31-2.47,6.03-18.94,7.52-28.66C119.53,72.87,121.55,66.88,121.23,59.46z"/>
						</g>
						<g>
							<path class="st4" d="M119.94,41.99c-7.29-6.91-18.04-8.83-27.83-7.1c-5.57,0.96-10.94,3.46-14.4,8.26
								c-2.69,3.84-3.65,7.29-4.99,12.09c-1.25,4.62,0.1,14.46,1.89,23.75c2.31-3.16,1.42-9.19,0.94-12.61
								c-0.19-1.35-0.58-4.99-0.58-4.99s2.69-1.92,3.46-3.65c1.54-3.07,0.96-7.49,0.96-10.94c4.8,2.3,32.83,1.73,38.2-0.38
								c0.58,3.84-1.15,12.29,3.65,13.05c0.32,7.42-1.7,13.4,2.58,18.18c0.25-1.6,0.44-3.03,0.54-4.17
								C125.32,64.07,127.62,48.9,119.94,41.99z"/>
						</g>
					</g>
					<g>
						<path class="st5" d="M92,100.11c1.44,2.59,2.88,4.61,6.19,5.04c4.32,0.72,8.06-1.29,9.36-5.62L92,100.11z"/>
						<g>
							<path d="M87.53,76.64c0,2.14-0.87,3.89-1.94,3.89c-1.07,0-1.94-1.74-1.94-3.89c0-2.15,0.87-3.89,1.94-3.89
								C86.66,72.76,87.53,74.5,87.53,76.64z"/>
							<path d="M114.03,76.64c0,2.14-0.87,3.89-1.94,3.89c-1.07,0-1.94-1.74-1.94-3.89c0-2.15,0.87-3.89,1.94-3.89
								C113.16,72.76,114.03,74.5,114.03,76.64z"/>
						</g>
						<g>
							<path class="st3" d="M99.2,73.19c0.49,1.43,0.51,3.04,0.13,4.56c-0.4,1.52-1.17,2.9-1.95,4.18c-0.77,1.3-1.59,2.53-2.13,3.85
								c-0.27,0.64-0.53,1.35-0.66,1.97c-0.14,0.7-0.15,1.3,0.01,1.91c0.28,1.19,1.34,2.07,2.62,2.49c0.64,0.22,1.32,0.35,2.02,0.39
								c0.36,0.02,0.68,0.02,1.05,0c0.31-0.02,0.66-0.07,0.97-0.16c1.28-0.33,2.27-1.4,2.74-2.75c0.5-1.33,0.63-2.89,0.53-4.35
								c0.18,0.34,0.21,0.74,0.26,1.11c0.03,0.38,0.08,0.74,0.09,1.13c0.04,0.77-0.01,1.55-0.18,2.32
								c-0.18,0.77-0.51,1.53-1.03,2.19c-0.52,0.66-1.26,1.16-2.05,1.45c-0.4,0.15-0.79,0.24-1.23,0.3
								c-0.38,0.05-0.81,0.07-1.2,0.06c-0.8-0.01-1.62-0.12-2.41-0.36c-0.79-0.24-1.57-0.63-2.23-1.21
								c-0.66-0.58-1.18-1.38-1.4-2.25c-0.43-1.79,0.17-3.43,0.81-4.84c0.69-1.43,1.57-2.69,2.45-3.9c0.86-1.22,1.7-2.42,2.23-3.77
								C99.21,76.19,99.36,74.69,99.2,73.19z"/>
						</g>
						<g>
							<g>
								<path class="st6" d="M84.28,63.01c-1.25,0.77-3.46,0.67-2.11-1.54c0.67-1.15,2.98-2.21,4.32-2.11
									c1.25,0.1,2.11,1.63,0.67,2.21L84.28,63.01z"/>
							</g>
							<g>
								<path class="st6" d="M112.11,60.52c-2.5-1.63-0.48-3.26,1.82-2.3c1.44,0.48,2.69,1.44,3.17,2.98
									c0.48,1.44-0.19,2.49-1.82,1.54L112.11,60.52z"/>
							</g>
						</g>
					</g>
				</g>
				<g>
					<g>
						<path class="st2" d="M48.67,180.02c4.89-0.86,13.53,0.58,19.29,0.29c0.86,6.05,0.57,19,0.57,19
							c-5.76,1.15-14.4,0.58-20.44,0.29C47.74,199.47,48.67,180.02,48.67,180.02z"/>
					</g>
					<g>
						<path class="st2" d="M152.76,180.02c-4.89-0.86-13.53,0.58-19.29,0.29c-0.86,6.05-0.58,19-0.58,19
							c5.76,1.15,14.4,0.58,20.45,0.29C153.69,199.47,152.76,180.02,152.76,180.02z"/>
					</g>
					<g>
						<g>
							<path class="st7" d="M127.67,136.74c-2.46-1.16-4.13-1.93-4.13-1.93c-0.08,0.05-0.2,0.1-0.32,0.15
								c-16.59,19.77-37.33,6.26-45.05-0.02c-0.1-0.04-0.21-0.09-0.28-0.13c0,0-1.93,0.89-4.68,2.19
								C78.65,141.97,106.7,165.23,127.67,136.74z"/>
						</g>
						<g>
							<path class="st7" d="M66.95,179.01c-7.54,1.71-17.69-0.01-21.57-0.8c-0.37,2.41-0.6,3.97-0.6,3.97
								c0.43,0.43,9.63,1.73,22.43,1.01l0-0.01L66.95,179.01z"/>
						</g>
						<g>
							<g>
								<path class="st8" d="M134.77,179.01c7.36,1.67,17.22,0.06,21.29-0.75c-1.23-8.03-4.02-25.8-5.02-27.9
									c-1.73-3.6-4.74-4.6-8.21-6.33c-4.37-2.19-10.93-5.29-15.16-7.28c-20.96,28.49-49.02,5.23-54.45,0.26
									c-4.23,1.99-10.43,4.93-14.62,7.02c-3.47,1.73-6.48,2.73-8.21,6.33c-1,2.11-3.78,19.8-5.01,27.85
									c3.88,0.79,14.04,2.52,21.57,0.8l0.26,4.17l0,0.01c0.01,0,0.02,0,0.04,0c0.29,6.34,0.29,19.29,0.29,19.29
									c-0.19-0.28,16.49-0.32,27.93-0.31l0,0.02c0,0,2.08-0.01,5.26-0.01c3.17,0.01,5.26,0.01,5.26,0.01l0-0.02
									c11.45-0.01,28.12,0.03,27.93,0.31c0,0,0-11.5,0.24-18.13l-1.34,2.9l1.34-2.9c0.01-0.41,0.03-0.8,0.05-1.16
									c0.16,0.01,0.32,0.02,0.48,0.02l0.04-0.08L134.77,179.01z"/>
							</g>
							<g>
								<path class="st7" d="M134.77,179.01l-0.06,4.12l-0.04,0.08c12.56,0.66,21.55-0.61,21.98-1.03c0,0-0.23-1.53-0.59-3.91
									C151.98,179.07,142.13,180.68,134.77,179.01z"/>
							</g>
						</g>
						<g>
							<g>
								<path class="st7" d="M67.44,190.92c-0.25-2.21-0.44-4.42-0.61-6.62c-0.2-2.21-0.33-4.42-0.51-6.61
									c-0.23-2.19-0.37-4.43-0.39-6.65c0.01-2.22,0.07-4.45,0.3-6.66c0.23,2.21,0.35,4.43,0.54,6.63
									c0.14,2.21,0.35,4.38,0.53,6.61c0.16,2.22,0.23,4.44,0.24,6.66C67.56,186.48,67.55,188.7,67.44,190.92z"/>
							</g>
							<g>
								<path class="st7" d="M64.12,172.53c-1.49-1.27-2.28-3.25-2.45-5.2c-0.16-1.95,0.28-4.02,1.49-5.55
									c-0.48,1.86-0.65,3.66-0.49,5.47C62.81,169.06,63.29,170.8,64.12,172.53z"/>
							</g>
						</g>
					</g>
					<g>
						<g>
							<path class="st7" d="M133.97,190.92c-0.11-2.22-0.13-4.44-0.1-6.66c0.01-2.22,0.08-4.43,0.24-6.66
								c0.18-2.22,0.39-4.4,0.53-6.61c0.18-2.2,0.3-4.41,0.54-6.63c0.23,2.22,0.29,4.44,0.3,6.66c-0.02,2.22-0.16,4.46-0.39,6.65
								c-0.18,2.2-0.31,4.41-0.51,6.61C134.42,186.51,134.23,188.72,133.97,190.92z"/>
						</g>
						<g>
							<path class="st7" d="M137.29,172.53c0.83-1.73,1.31-3.47,1.45-5.28c0.16-1.81-0.02-3.61-0.5-5.47
								c1.21,1.53,1.65,3.6,1.49,5.55C139.57,169.28,138.78,171.26,137.29,172.53z"/>
						</g>
					</g>
				</g>
			</g>
		</g>
	</g>
</g>
</svg>
