<?xml version="1.0" encoding="utf-8"?>
<!-- Generator: Adobe Illustrator 24.3.0, SVG Export Plug-In . SVG Version: 6.00 Build 0)  -->
<svg version="1.1" id="Calque_1" xmlns="http://www.w3.org/2000/svg" xmlns:xlink="http://www.w3.org/1999/xlink" x="0px" y="0px"
	 viewBox="0 0 200 200" style="enable-background:new 0 0 200 200;" xml:space="preserve">
<style type="text/css">
	.st0{fill:#FFEC89;}
	.st1{clip-path:url(#SVGID_2_);}
	.st2{fill:#FFD0BE;}
	.st3{fill:#FCB29D;}
	.st4{fill:#FFFFFF;}
	.st5{fill:#985748;}
	.st6{opacity:0.2;fill:#FFA4BD;}
	.st7{fill:#D69382;}
	.st8{fill:#663325;}
	.st9{fill:none;stroke:#485169;stroke-width:0.75;stroke-miterlimit:10;}
</style>
<g>
	
		<ellipse transform="matrix(0.1593 -0.9872 0.9872 0.1593 -15.111 183.1805)" class="st0" cx="100" cy="100.46" rx="87.54" ry="87.54"/>
	<g>
		<defs>
			
				<ellipse id="SVGID_1_" transform="matrix(0.1593 -0.9872 0.9872 0.1593 -15.111 183.1805)" cx="100" cy="100.46" rx="87.54" ry="87.54"/>
		</defs>
		<clipPath id="SVGID_2_">
			<use xlink:href="#SVGID_1_"  style="overflow:visible;"/>
		</clipPath>
		<g class="st1">
			<g>
				<path d="M110.34,115.85c2.34,0.07,6.44-0.07,8.69-0.7c-0.18,0.46-1.52,2.73-1.7,3.19c2.87-1.06,6.01-2.36,7.29-5.13
					c-0.33,1.65-0.66,3.3-0.99,4.95c4.4-1.43,8.66-3.54,12.01-6.73c3.35-3.2,5.71-7.58,5.87-12.21c0.12-3.47-0.98-6.85-1.52-10.28
					c-0.95-6.02-1.54-12.14-1.38-18.23c0.33-12.16-3.69-25.57-13.56-33.41c-4.74-3.76-12.8-5.4-18.7-5.62
					c-6.21-0.23-9.7,1.82-15.7,3.1c-12.09,0-21.67,11.49-24.59,22.39c-1.89,7.06-1.7,14.5-2.79,21.72
					c-0.66,4.38-1.8,8.67-2.46,13.05c-0.66,4.38-0.84,8.92,0.39,13.17c1.23,4.25,4.03,8.2,8.07,10.03c-1-0.94-1.68-2.2-1.94-3.54
					c3.28,3.12,7.78,4.93,12.3,4.92c0.14-0.43,0.09,0.07-0.19-0.28c-0.83-1.04-1.43-2.26-1.76-3.54c1.68,1.52,3.83,2.45,6.04,2.97
					c1.68,0.39,3.48,0.28,5.12,0.68c2,0.5,3.48,1.43,5.66,1.33c-0.22-0.51-0.44-1.02-0.66-1.52c3.06,1.11,6.1,1.14,9.23,1.71
					C105.79,118.35,107.58,115.77,110.34,115.85z"/>
			</g>
			<g>
				<g>
					<path class="st2" d="M74.88,139.97c3.23-0.5,10.45-4.04,12.43-6.78c2.24-2.73,4.48-25.55,4.48-25.55
						c5.22,1,14.92,1.49,19.9-0.75c0.5,6.96,0,13.43,1.49,20.15c0.5,3.48,1,5.97,3.73,7.96c2.48,1.99,6.46,2.98,9.2,4.48
						c-3.48,5.47-6.46,11.69-11.19,15.92c-4.23,3.98-9.2,7.46-12.68,11.69L74.88,139.97z"/>
				</g>
				<g>
					<path class="st3" d="M89.73,110.55c0.19,5.57,5.76,17.17,11.33,19.28c6.14,2.11,11.91-15.74,11.91-19.96h-1.16L89.73,110.55z"
						/>
				</g>
			</g>
			<g>
				<g>
					<path class="st2" d="M49.9,170.15c4.9-0.86,13.53,12.67,19.29,12.38c0.86,6.05,0.58,19,0.58,19
						c-5.76,1.15-14.4,0.58-20.45,0.29C48.97,201.69,49.9,170.15,49.9,170.15z"/>
				</g>
				<g>
					<path class="st2" d="M153.99,169.57c-4.9-0.86-13.54,13.25-19.29,12.96c-0.87,6.05-0.58,19-0.58,19
						c5.76,1.15,14.4,0.58,20.45,0.29C154.92,201.69,153.99,169.57,153.99,169.57z"/>
				</g>
			</g>
			<rect x="82.53" y="150.95" class="st4" width="39.16" height="24.38"/>
			<g>
				<path class="st5" d="M157.88,171.88c0,0-4.32-16.56-5.62-19.29c-1.73-3.6-4.74-4.6-8.21-6.33c-6.91-3.46-19.29-9.21-19.29-9.21
					c-3.64,2.35-22.82,27.93-22.82,27.93c-0.5,0.86-19.18-25.58-22.82-27.93c0,0-12.38,5.76-19.29,9.21
					c-3.47,1.73-6.48,2.73-8.21,6.33c-1.3,2.74-5.62,18.14-5.62,18.14c0.37,0.37,7.21,9.25,17.24,11.31
					c-0.52,1.55-0.87,3.12-0.97,4.67c-0.43,5.62,1.58,14.54,6.48,18c0,0,16.48-0.32,27.93-0.31v0.02c0,0,2.08-0.01,5.25-0.01
					c3.18,0.01,5.26,0.01,5.26,0.01l0-0.02c11.45-0.01,27.87,0.18,27.93,0.31c4.89-3.46,7.85-12.38,7.42-18
					c-0.1-1.59-0.46-3.2-1.01-4.79C151.08,179.8,157.52,172.23,157.88,171.88z"/>
			</g>
			<g>
				<g>
					<g>
						<path class="st3" d="M76.1,82.47c-4.03-1.58-9.65,0.14-10.37,5.04c-1.01,6.62,4.03,14.4,11.09,13.53
							c2.45-0.29,4.18-1.58,6.34-2.59L76.1,82.47z"/>
					</g>
					<g>
						<path class="st3" d="M123.34,82.47c4.03-1.58,9.65,0.14,10.37,5.04c1.01,6.62-4.03,14.4-11.09,13.53
							c-2.45-0.29-4.18-1.58-6.34-2.59L123.34,82.47z"/>
					</g>
				</g>
				<g>
					<path class="st2" d="M102.74,121c-4.8-0.38-11.53-4.66-15.74-7.87c-4.03-3.07-5.57-3.84-6.72-9.21
						c-0.96-4.99-8.83-34.94-6.34-44.15c1.34-4.8,2.3-8.26,4.99-12.09c3.46-4.8,8.83-7.29,14.4-8.25c9.79-1.73,20.54,0.19,27.83,7.1
						c7.68,6.91,5.38,22.08,4.42,31.48c-0.77,8.06-5.38,29.95-8.06,32.83C115.61,113.13,102.74,121,102.74,121z"/>
				</g>
				<path class="st6" d="M89.35,92.76c0,1.07-2.06,1.94-4.61,1.94c-2.54,0-4.61-0.87-4.61-1.94c0-1.07,2.06-1.94,4.61-1.94
					C87.28,90.82,89.35,91.69,89.35,92.76z"/>
				<path class="st6" d="M121.16,92.76c0,1.07-2.06,1.94-4.61,1.94c-2.54,0-4.61-0.87-4.61-1.94c0-1.07,2.06-1.94,4.61-1.94
					C119.1,90.82,121.16,91.69,121.16,92.76z"/>
				<g>
					<g>
						<path d="M90.07,82.32c0,2.15-0.87,3.89-1.94,3.89c-1.07,0-1.94-1.74-1.94-3.89c0-2.15,0.87-3.89,1.94-3.89
							C89.2,78.43,90.07,80.18,90.07,82.32z"/>
						<path d="M115.26,82.32c0,2.15-0.87,3.89-1.94,3.89c-1.07,0-1.95-1.74-1.95-3.89c0-2.15,0.87-3.89,1.95-3.89
							C114.38,78.43,115.26,80.18,115.26,82.32z"/>
					</g>
					<g>
						<path class="st7" d="M101.95,82.84c-0.31,1.6-0.34,3.2,0.21,4.54c0.52,1.38,1.63,2.25,2.87,3.44
							c0.56,0.61,1.24,1.35,1.39,2.47c0.04,0.56-0.11,1.1-0.33,1.53c-0.21,0.46-0.57,0.83-0.93,1.11c-0.72,0.58-1.56,0.9-2.41,1.04
							c-0.84,0.13-1.78,0.06-2.46-0.43c0.81,0.16,1.57,0.01,2.27-0.28c0.7-0.28,1.34-0.7,1.81-1.2c0.23-0.26,0.41-0.51,0.52-0.8
							c0.12-0.31,0.15-0.56,0.11-0.81c-0.08-0.5-0.52-1.06-1.05-1.59c-0.52-0.56-1.14-1.08-1.7-1.76c-0.56-0.7-1-1.5-1.21-2.37
							C100.61,85.98,101.07,84.2,101.95,82.84z"/>
					</g>
					<g>
						<path class="st4" d="M94.55,105.16c0.44,2.1,4.09,4.64,6.08,5.31c3.98,1.22,6.19-1.66,7.41-4.97L94.55,105.16z"/>
					</g>
					<g>
						<g>
							<path d="M84.38,72.56c-0.37-0.76-0.42-1.65-0.26-2.49c0.15-0.85,0.55-1.66,1.11-2.34c1.1-1.36,3.08-2.1,4.67-1.47
								c-0.78,0.32-1.43,0.64-2.01,1.04c-0.57,0.41-1.07,0.87-1.51,1.39C85.49,69.75,84.87,70.98,84.38,72.56z"/>
						</g>
						<g>
							<path d="M111.57,64.82c0.89-0.36,1.95-0.35,2.9,0.03c0.97,0.36,1.78,1.07,2.35,1.9c0.57,0.83,0.93,1.78,1.07,2.74
								c0.15,0.96,0.09,1.95-0.25,2.85c-0.29-0.91-0.56-1.75-0.88-2.54c-0.34-0.79-0.71-1.53-1.17-2.19c-0.46-0.67-1-1.25-1.66-1.71
								C113.28,65.42,112.49,65.09,111.57,64.82z"/>
						</g>
					</g>
				</g>
			</g>
			<g>
				<g>
					<path class="st8" d="M62.28,190c-0.43-3.93,0.13-7.95,1.32-11.74c1.21-3.78,3.07-7.38,5.64-10.38
						c-1.92,3.44-3.52,6.98-4.69,10.68C63.36,182.26,62.64,186.07,62.28,190z"/>
				</g>
				<g>
					<path class="st8" d="M63.31,174.26c-0.39-1.8-0.41-3.65-0.12-5.48c0.32-1.81,0.99-3.63,2.24-5.01
						c-0.55,1.76-0.97,3.43-1.26,5.18C63.87,170.69,63.71,172.46,63.31,174.26z"/>
				</g>
				<g>
					<path class="st8" d="M142.49,189.46c-0.4-3.56-1.25-6.98-2.58-10.24c-1.31-3.26-3.07-6.32-5.17-9.22
						c2.7,2.38,4.73,5.5,6.1,8.84C142.18,182.21,142.89,185.88,142.49,189.46z"/>
				</g>
				<g>
					<path class="st8" d="M139.55,173.22c-0.15-1.73-0.26-3.37-0.54-4.99c-0.27-1.63-0.65-3.19-1.38-4.76
						c0.7,0.53,1.22,1.28,1.6,2.08c0.39,0.8,0.62,1.65,0.77,2.52C140.26,169.79,140.18,171.59,139.55,173.22z"/>
				</g>
			</g>
			<path d="M127.33,54.74c-1.73-4.22-4.26-8.62-7.93-11.45c-1.65-1.27-3.05-1.88-5.09-2.24c-0.23-0.04-0.46-0.08-0.7-0.12
				c-5.31-5.76-18.56-13.97-40.87,10.19c0,0-2.49,27.5,3.36,33.21c0,0,4.97-11.06,8.19-25.37c1.69,3.51,4.86,8.11,8.51,9.89
				c-0.33-3.13-1.98-6.03-1.79-9.44c2.02,3.1,3.87,6.46,6.99,8.83c3.75,2.84,8.38,3.91,12.78,5.24c-1.63-3.29-4.87-6.3-5.38-10.08
				c4.76,4.42,11.08,7.02,15.12,12.13c1.14,1.45,2.5,3.36,3.14,5.1c0.59,1.63,0.41,3.92,0.41,3.92c3.24-2.69,4.67-8.83,4.98-12.71
				C129.54,65.86,129.65,60.39,127.33,54.74z"/>
			<g>
				<path class="st9" d="M75.67,83.12c0-6.04,4.9-10.94,10.94-10.94c6.04,0,10.94,4.9,10.94,10.94c0,6.04-4.9,10.94-10.94,10.94
					C80.57,94.07,75.67,89.17,75.67,83.12z"/>
				<circle class="st9" cx="114.26" cy="83.12" r="10.94"/>
				<path class="st9" d="M97.54,82.59c0,0,3.05-2.46,5.81-0.06"/>
			</g>
		</g>
	</g>
</g>
</svg>
