<?xml version="1.0" encoding="utf-8"?>
<!-- Generator: Adobe Illustrator 24.3.0, SVG Export Plug-In . SVG Version: 6.00 Build 0)  -->
<svg version="1.1" xmlns="http://www.w3.org/2000/svg" xmlns:xlink="http://www.w3.org/1999/xlink" x="0px" y="0px"
	 viewBox="0 0 200 200" style="enable-background:new 0 0 200 200;" xml:space="preserve">
<style type="text/css">
	.st0{fill:#FFEC89;}
	.st1{clip-path:url(#SVGID_2_);}
	.st2{fill:#344490;}
	.st3{fill:#1F326D;}
	.st4{fill:#FFD0BE;}
	.st5{fill:#FCB29D;}
	.st6{fill:#FFB0BE;}
	.st7{opacity:0.5;}
	.st8{clip-path:url(#SVGID_4_);}
	.st9{fill:#FF92A3;}
	.st10{opacity:0.2;fill:#FFA4BD;}
	.st11{fill:#D69382;}
	.st12{fill:#EB7E90;}
</style>
<g id="Calque_1">
</g>
<g id="Calque_5">
	<g>
		
			<ellipse transform="matrix(0.1674 -0.9859 0.9859 0.1674 -17.0701 183.1817)" class="st0" cx="99.92" cy="101.7" rx="87.54" ry="87.54"/>
		<g>
			<defs>
				
					<ellipse id="SVGID_1_" transform="matrix(0.1674 -0.9859 0.9859 0.1674 -17.0701 183.1817)" cx="99.92" cy="101.7" rx="87.54" ry="87.54"/>
			</defs>
			<clipPath id="SVGID_2_">
				<use xlink:href="#SVGID_1_"  style="overflow:visible;"/>
			</clipPath>
			<g class="st1">
				<g>
					<g>
						<g>
							<path class="st2" d="M89.71,27.83c-10.43-4.5-18.63,5.27-22.19,17.03c-3.05,9.69-3.31,20.41-5.09,30.79
								c-2.29,11.07-6.11,17.99-10.94,26.63c-8.39,15.56-13.83,45.6-10.94,64.68c3.96,26.07,17.3,39.43,30.78,50.5
								c22.64,19.02,57.74,9.69,74.27-15.57c10.43-15.56,17.55-44.96,14.75-65.72c-1.27-10.38-5.09-18.33-9.67-26.63
								c-5.09-8.99-11.45-14.53-13.99-25.94c-3.31-15.57,0-33.9-8.65-47.04c-6.87-11.07-19.91-10.57-26.57,0.18
								C101.48,36.73,96.32,30.59,89.71,27.83z"/>
						</g>
						<g>
							<path class="st3" d="M76.21,95.66c-1.06,5.56-3.92,11.76-5.78,17.32c-3.7,11.11-7.35,34.1-1.53,44.68
								c6.35,11.91,22.17,10.36,35.14,9.3c12.7-1.06,21.19-0.12,27.27-10.72c9.71-16.93,0.78-61.26-20.92-65.23L76.21,95.66z"/>
						</g>
						<g>
							<path class="st4" d="M74.8,141.2c3.23-0.5,10.45-4.04,12.44-6.78c2.24-2.73,4.48-25.55,4.48-25.55
								c5.22,1,14.92,1.49,19.9-0.75c0.5,6.96,0,13.43,1.49,20.15c0.5,3.48,0.99,5.97,3.73,7.96c2.49,1.99,6.46,2.98,9.2,4.48
								c-3.48,5.47-6.46,11.69-11.19,15.92c-4.23,3.98-9.2,7.46-12.68,11.69L74.8,141.2z"/>
						</g>
						<g>
							<path class="st5" d="M89.65,111.79c0.19,5.57,5.76,17.17,11.33,19.28c6.14,2.11,11.91-15.74,11.91-19.96h-1.17L89.65,111.79z
								"/>
						</g>
					</g>
					<g>
						<g>
							<path class="st4" d="M49.82,171.38c4.89-0.86,13.53,12.67,19.29,12.38c0.86,6.05,0.57,19,0.57,19
								c-5.76,1.15-14.4,0.58-20.44,0.29C48.89,202.92,49.82,171.38,49.82,171.38z"/>
						</g>
						<g>
							<path class="st4" d="M153.91,170.81c-4.89-0.86-13.53,13.25-19.29,12.96c-0.86,6.05-0.58,19-0.58,19
								c5.76,1.15,14.4,0.58,20.45,0.29C154.84,202.92,153.91,170.81,153.91,170.81z"/>
						</g>
					</g>
					<g>
						<path class="st6" d="M157.8,173.11c0,0-4.32-16.56-5.62-19.29c-1.73-3.6-4.74-4.6-8.21-6.33c-6.91-3.46-19.29-9.21-19.29-9.21
							c-3.64,2.35-22.82,27.93-22.82,27.93c-0.5,0.86-19.18-25.58-22.82-27.93c0,0-12.38,5.76-19.29,9.21
							c-3.47,1.73-6.48,2.73-8.21,6.33c-1.3,2.74-5.62,18.14-5.62,18.14c0.37,0.37,7.21,9.25,17.24,11.31
							c-0.53,1.55-0.87,3.12-0.97,4.67c-0.43,5.62,1.58,14.54,6.48,18c0,0,16.49-0.32,27.93-0.31l0,0.02c0,0,2.08-0.01,5.26-0.01
							c3.17,0.01,5.26,0.01,5.26,0.01l0-0.02c11.45-0.01,27.87,0.18,27.93,0.31c4.9-3.46,7.85-12.38,7.42-18
							c-0.1-1.59-0.46-3.2-1.01-4.79C151,181.03,157.44,173.47,157.8,173.11z"/>
					</g>
					<g class="st7">
						<defs>
							<path id="SVGID_3_" class="st7" d="M157.8,173.11c0,0-4.32-16.56-5.62-19.29c-1.73-3.6-4.74-4.6-8.21-6.33
								c-6.91-3.46-19.29-9.21-19.29-9.21c-3.64,2.35-22.82,27.93-22.82,27.93c-0.5,0.86-19.18-25.58-22.82-27.93
								c0,0-12.38,5.76-19.29,9.21c-3.47,1.73-6.48,2.73-8.21,6.33c-1.3,2.74-5.62,18.14-5.62,18.14
								c0.37,0.37,7.21,9.25,17.24,11.31c-0.53,1.55-0.87,3.12-0.97,4.67c-0.43,5.62,1.58,14.54,6.48,18c0,0,16.49-0.32,27.93-0.31
								l0,0.02c0,0,2.08-0.01,5.26-0.01c3.17,0.01,5.26,0.01,5.26,0.01l0-0.02c11.45-0.01,27.87,0.18,27.93,0.31
								c4.9-3.46,7.85-12.38,7.42-18c-0.1-1.59-0.46-3.2-1.01-4.79C151,181.03,157.44,173.47,157.8,173.11z"/>
						</defs>
						<clipPath id="SVGID_4_">
							<use xlink:href="#SVGID_3_"  style="overflow:visible;"/>
						</clipPath>
						<g class="st8">
							<rect x="41.15" y="142.72" class="st9" width="120.94" height="8.06"/>
							<rect x="41.15" y="157.4" class="st9" width="120.94" height="8.06"/>
							<rect x="41.15" y="172.09" class="st9" width="120.94" height="8.06"/>
							<rect x="41.15" y="186.77" class="st9" width="120.94" height="8.06"/>
							<rect x="41.15" y="201.46" class="st9" width="120.94" height="8.06"/>
						</g>
					</g>
					<g>
						<g>
							<g>
								<path class="st5" d="M76.02,83.7c-4.03-1.58-9.65,0.14-10.37,5.04c-1.01,6.62,4.03,14.4,11.09,13.53
									c2.45-0.29,4.17-1.58,6.33-2.59L76.02,83.7z"/>
							</g>
							<g>
								<path class="st5" d="M123.26,83.7c4.03-1.58,9.65,0.14,10.37,5.04c1.01,6.62-4.03,14.4-11.09,13.53
									c-2.45-0.29-4.18-1.58-6.33-2.59L123.26,83.7z"/>
							</g>
						</g>
						<g>
							<g>
								<path class="st3" d="M94.47,54.7c1.73,0.29,3.46,0.72,5.04,1.3c2.3,0.86,2.16,0.58,4.32-0.43
									c4.03-2.02,9.21-3.02,13.68-3.02c2.55,0,4.9,0.16,7.23,0.64c-0.84-2.09-2-3.95-3.64-5.42c-7.29-6.91-18.04-8.83-27.83-7.1
									c-5.57,0.96-10.94,3.46-14.4,8.25c-1.4,1.99-2.32,3.88-3.08,5.91C81.47,53.26,89.14,53.81,94.47,54.7z"/>
							</g>
							<g>
								<path class="st4" d="M117.51,52.54c-4.46,0-9.65,1.01-13.68,3.02c-2.16,1.01-2.02,1.3-4.32,0.43
									c-1.58-0.58-3.31-1.01-5.04-1.3c-5.33-0.89-13-1.44-18.69,0.12c-0.71,1.88-1.27,3.88-1.91,6.19
									c-2.5,9.21,5.37,39.16,6.33,44.15c1.15,5.38,2.69,6.14,6.72,9.21c4.21,3.21,10.94,7.49,15.74,7.87
									c0,0,12.86-7.87,14.78-10.18c2.69-2.88,7.29-24.76,8.06-32.83c0.75-7.4,2.32-18.35-0.78-26.06
									C122.4,52.7,120.06,52.54,117.51,52.54z"/>
							</g>
						</g>
						<path class="st10" d="M89.27,94c0,1.07-2.06,1.94-4.61,1.94c-2.54,0-4.61-0.87-4.61-1.94c0-1.07,2.06-1.94,4.61-1.94
							C87.21,92.05,89.27,92.92,89.27,94z"/>
						<path class="st10" d="M121.09,94c0,1.07-2.06,1.94-4.61,1.94c-2.55,0-4.61-0.87-4.61-1.94c0-1.07,2.06-1.94,4.61-1.94
							C119.02,92.05,121.09,92.92,121.09,94z"/>
						<g>
							<g>
								<path d="M89.99,83.56c0,2.15-0.87,3.89-1.95,3.89c-1.07,0-1.94-1.74-1.94-3.89c0-2.15,0.87-3.89,1.94-3.89
									C89.12,79.67,89.99,81.41,89.99,83.56z"/>
								<path d="M115.18,83.56c0,2.15-0.87,3.89-1.94,3.89c-1.07,0-1.94-1.74-1.94-3.89c0-2.15,0.87-3.89,1.94-3.89
									C114.31,79.67,115.18,81.41,115.18,83.56z"/>
							</g>
							<g>
								<path class="st11" d="M101.88,84.07c-0.31,1.6-0.34,3.2,0.21,4.54c0.28,0.67,0.66,1.28,1.16,1.79
									c0.5,0.53,1.11,1.05,1.71,1.65c0.56,0.61,1.25,1.34,1.39,2.47c0.05,0.56-0.1,1.11-0.34,1.54c-0.03,0.06-0.09,0.17-0.17,0.3
									c-0.08,0.11-0.14,0.21-0.23,0.31c-0.16,0.19-0.34,0.35-0.52,0.49c-0.72,0.58-1.56,0.89-2.41,1.04
									c-0.84,0.12-1.78,0.06-2.46-0.43c0.8,0.17,1.57,0,2.27-0.28c0.7-0.28,1.34-0.7,1.82-1.2c0.45-0.49,0.73-1.14,0.63-1.61
									c-0.07-0.5-0.51-1.06-1.05-1.59c-0.52-0.56-1.14-1.09-1.71-1.76c-0.55-0.69-1-1.51-1.21-2.37
									C100.53,87.22,100.99,85.43,101.88,84.07z"/>
							</g>
							<g>
								<path class="st11" d="M93.16,104.72c1.09,1.33,2.14,2.69,3.49,3.46c0.67,0.38,1.39,0.65,2.16,0.77l0.58,0.09
									c0.22,0.03,0.44,0.06,0.62,0.08c0.38,0.04,0.78,0.05,1.17,0.04c1.56-0.01,3.1-0.43,4.41-1.29c1.31-0.86,2.35-2.18,3.13-3.71
									c-0.18,1.71-1.01,3.44-2.42,4.64c-1.39,1.23-3.27,1.84-5.1,1.86c-0.46,0-0.91-0.03-1.37-0.09c-0.24-0.03-0.43-0.07-0.64-0.1
									c-0.23-0.04-0.45-0.07-0.68-0.14c-0.89-0.23-1.78-0.61-2.51-1.19C94.49,107.98,93.71,106.33,93.16,104.72z"/>
							</g>
							<g>
								<g>
									<path class="st3" d="M84.3,73.79c-0.52-1.55-0.04-3.38,1.04-4.67c0.55-0.64,1.25-1.17,2.04-1.47
										c0.79-0.3,1.65-0.37,2.44-0.16c-1.56,0.4-2.79,1.16-3.71,2.27C85.18,70.87,84.59,72.22,84.3,73.79z"/>
								</g>
								<g>
									<path class="st3" d="M111.49,66.05c0.89-0.26,1.91-0.19,2.82,0.2c0.92,0.38,1.68,1.07,2.24,1.87
										c1.09,1.61,1.47,3.64,1.03,5.45c-0.18-0.91-0.4-1.77-0.69-2.6c-0.3-0.82-0.67-1.6-1.15-2.29c-0.47-0.7-1.07-1.29-1.77-1.75
										C113.24,66.49,112.41,66.21,111.49,66.05z"/>
								</g>
							</g>
						</g>
					</g>
					<g>
						<g>
							<path class="st12" d="M62.2,191.23c-0.43-3.93,0.13-7.96,1.32-11.74c1.21-3.78,3.07-7.38,5.64-10.38
								c-1.92,3.44-3.52,6.98-4.69,10.68C63.29,183.49,62.56,187.31,62.2,191.23z"/>
						</g>
						<g>
							<path class="st12" d="M63.23,175.5c-0.39-1.8-0.41-3.65-0.12-5.48c0.32-1.81,0.99-3.63,2.24-5.01
								c-0.55,1.76-0.97,3.43-1.26,5.18C63.79,171.92,63.63,173.69,63.23,175.5z"/>
						</g>
						<g>
							<path class="st12" d="M142.42,190.7c-0.4-3.56-1.25-6.98-2.58-10.24c-1.31-3.26-3.07-6.32-5.17-9.22
								c2.7,2.38,4.73,5.5,6.1,8.84C142.11,183.44,142.81,187.12,142.42,190.7z"/>
						</g>
						<g>
							<path class="st12" d="M139.47,174.45c-0.15-1.73-0.26-3.37-0.53-4.99c-0.27-1.63-0.64-3.19-1.38-4.76
								c0.7,0.53,1.22,1.28,1.6,2.08c0.39,0.8,0.62,1.65,0.77,2.52C140.18,171.03,140.1,172.82,139.47,174.45z"/>
						</g>
					</g>
				</g>
				<g>
					<path class="st2" d="M101.52,56.57c0.14-4.03-1.87-9.79-4.89-12.53c-7.05-6.48-11.95,4.9-13.68,10.08
						c-2.3,7.49-1.29,16.41-1.29,24.19c0,18.03-8.11,25.61-11.13,27.05c-3.6,1.73-5.14-0.12-6.72-3.29
						c-1.73-3.74-2.02-9.65-1.58-13.68c0.58-4.61,1.3-9.65,2.16-14.25c0.86-4.75,1.73-9.65,2.73-14.25
						c1.01-4.75,4.03-9.07,6.34-13.39c3.89-6.77,11.66-14.11,20.3-12.24c3.31,0.72,7.2,4.46,8.21,7.49L101.52,56.57z"/>
				</g>
				<g>
					<path class="st2" d="M101.38,56.57c1.58-4.32,3.89-13.25,10.51-10.51c6.05,2.45,6.33,15.41,7.34,20.73
						c1.58,8.35,1.73,16.7,3.02,25.2c0.58,4.03,1.58,9.07,4.9,11.95c2.59,2.3,7.77,3.02,10.37,0.43c2.88-2.59,2.16-8.35,1.58-11.81
						c-0.86-4.75-3.17-8.64-4.89-13.1c-1.58-4.03-3.02-8.21-3.74-12.53c-0.58-4.18-0.14-8.35-0.86-12.53
						c-1.73-8.49-8.49-15.69-17.28-16.27c-6.05-0.43-12.58-2.16-12.44,5.04L101.38,56.57z"/>
				</g>
			</g>
		</g>
	</g>
</g>
</svg>
