<?xml version="1.0" encoding="utf-8"?>
<!-- Generator: Adobe Illustrator 24.3.0, SVG Export Plug-In . SVG Version: 6.00 Build 0)  -->
<svg version="1.1" xmlns="http://www.w3.org/2000/svg" xmlns:xlink="http://www.w3.org/1999/xlink" x="0px" y="0px"
	 viewBox="0 0 200 200" style="enable-background:new 0 0 200 200;" xml:space="preserve">
<style type="text/css">
	.st0{fill:#FFEC89;}
	.st1{clip-path:url(#SVGID_2_);}
	.st2{fill:#F2BC82;}
	.st3{fill:#D49B64;}
	.st4{fill:#FFFFFF;}
	.st5{fill:#381E18;}
	.st6{fill:#FF7942;}
	.st7{fill:#E55426;}
	.st8{clip-path:url(#SVGID_4_);}
	.st9{fill:none;stroke:#E55426;stroke-miterlimit:10;}
</style>
<g id="Calque_1">
</g>
<g id="Calque_2">
	<g>
		<path class="st0" d="M12.38,100.97c0-48.35,39.19-87.54,87.54-87.54s87.54,39.19,87.54,87.54s-39.19,87.54-87.54,87.54
			S12.38,149.31,12.38,100.97z"/>
		<g>
			<defs>
				<path id="SVGID_1_" d="M12.38,100.97c0-48.35,39.19-87.54,87.54-87.54s87.54,39.19,87.54,87.54s-39.19,87.54-87.54,87.54
					S12.38,149.31,12.38,100.97z"/>
			</defs>
			<clipPath id="SVGID_2_">
				<use xlink:href="#SVGID_1_"  style="overflow:visible;"/>
			</clipPath>
			<g class="st1">
				<g>
					<g>
						<path class="st2" d="M73.94,140.47c3.23-0.5,10.45-4.04,12.43-6.78c2.24-2.73,4.48-25.55,4.48-25.55
							c5.22,1,14.92,1.49,19.89-0.75c0.5,6.96,0,13.43,1.49,20.15c0.5,3.48,0.99,5.97,3.73,7.96c2.49,1.99,6.47,2.98,9.2,4.48
							c-3.48,5.47-6.47,11.69-11.19,15.92c-4.23,3.98-9.2,7.46-12.68,11.69L73.94,140.47z"/>
					</g>
					<g>
						<path class="st3" d="M90.13,111.91c0.19,5.57,4.41,16.32,9.98,18.43c6.14,2.11,10.75-15.74,10.75-19.96l0,0L90.13,111.91z"/>
					</g>
				</g>
				<g>
					<g>
						<path class="st3" d="M74.87,80.67c-4.03-1.58-9.65,0.14-10.37,5.04c-1.01,6.62,4.03,14.4,11.09,13.54
							c2.45-0.29,4.17-1.58,6.33-2.59L74.87,80.67z"/>
					</g>
					<g>
						<path class="st3" d="M122.11,80.67c4.03-1.58,9.65,0.14,10.37,5.04c1.01,6.62-4.03,14.4-11.09,13.54
							c-2.45-0.29-4.17-1.58-6.33-2.59L122.11,80.67z"/>
					</g>
				</g>
				<g>
					<g>
						<path class="st2" d="M101.51,119.21c-4.8-0.38-11.53-4.66-15.74-7.87c-4.03-3.07-5.57-3.84-6.72-9.21
							c-0.96-4.99-8.83-34.94-6.33-44.15c1.34-4.8,2.3-8.26,4.99-12.09c3.46-4.8,8.83-7.3,14.4-8.26c9.79-1.73,20.54,0.19,27.84,7.1
							c7.68,6.91,5.38,22.08,4.41,31.48c-0.77,8.06-5.38,29.95-8.06,32.83C114.38,111.34,101.51,119.21,101.51,119.21z"/>
					</g>
					<path class="st4" d="M92.58,103.56c1.21,1.69,2.43,3.01,5.38,3.44c3.85,0.65,7.27-0.43,8.58-3.06L92.58,103.56z"/>
					<g>
						<path class="st5" d="M112.28,102.25c-0.11-1.91-0.62-4.89-2.4-5.94c-3.06-1.8-9.5-0.95-9.5-0.95c-3.17,0-8.41-0.74-10.7,1.7
							c-3.06,3.4-2.95,9.66-2.08,13.69c0.33,2.23,0.98,4.14,3.06,5.31c1.96,1.17,4.26,2.02,6.44,2.76c4.7,1.49,9.28-0.21,13-3.18
							C113.48,112.97,112.39,106.07,112.28,102.25z M107.8,111.06c-0.55,2.23-3.06,1.8-5.13,1.49c-0.11-2.23-0.33-2.55-2.73-2.44
							c-2.62,0.11-1.96,0.53-2.19,2.65c-0.98,0-2.07,0.11-3.06,0c-2.95-0.32-4.15-2.23-4.48-4.88c-0.22-1.91-0.54-5.31,0.88-6.9
							c2.07-2.12,7.54,0.53,9.06-2.12v-0.32c2.4,3.61,7.97-0.53,8.08,4.99C108.35,105.54,108.35,109.15,107.8,111.06z"/>
					</g>
					<g>
						<g>
							<path class="st5" d="M82.11,67.45c0.09-0.85,0.64-1.66,1.4-2.16c0.75-0.52,1.64-0.75,2.52-0.81
								c0.88-0.04,1.76,0.08,2.58,0.39c0.81,0.3,1.58,0.78,2.09,1.46c-0.77-0.36-1.53-0.57-2.3-0.71c-0.77-0.13-1.55-0.2-2.31-0.14
								C84.56,65.56,83.07,66.03,82.11,67.45z"/>
						</g>
						<g>
							<path class="st5" d="M116.03,67.45c-0.97-1.41-2.46-1.88-3.98-1.97c-0.76-0.05-1.54,0.01-2.31,0.14
								c-0.77,0.14-1.53,0.35-2.3,0.71c0.51-0.69,1.28-1.16,2.09-1.46c0.81-0.31,1.69-0.43,2.57-0.39c0.88,0.06,1.77,0.3,2.52,0.81
								C115.38,65.78,115.93,66.6,116.03,67.45z"/>
						</g>
					</g>
					<g>
						<g>
							<path d="M87.54,79.37c0,2.15-0.87,3.89-1.95,3.89c-1.07,0-1.94-1.74-1.94-3.89s0.87-3.89,1.94-3.89
								C86.66,75.48,87.54,77.23,87.54,79.37z"/>
							<path d="M114.03,79.37c0,2.15-0.87,3.89-1.94,3.89c-1.07,0-1.94-1.74-1.94-3.89s0.87-3.89,1.94-3.89
								C113.16,75.48,114.03,77.23,114.03,79.37z"/>
						</g>
						<g>
							<path class="st3" d="M101.33,73.36c-0.51,0.55-0.87,1.2-1.05,1.89c-0.17,0.7-0.17,1.42-0.05,2.12
								c0.22,1.4,0.84,2.73,1.61,3.92c0.77,1.19,1.8,2.15,2.91,3.17c1.09,1.02,2.23,2.23,2.87,3.76c0.16,0.4,0.28,0.73,0.4,1.17
								c0.11,0.46,0.13,0.92,0.07,1.39c-0.13,0.93-0.62,1.76-1.24,2.35c-0.63,0.6-1.38,1.02-2.18,1.28
								c-0.78,0.27-1.72,0.32-2.54,0.1c-0.84-0.21-1.58-0.7-2.14-1.28c-0.57-0.58-0.99-1.24-1.37-1.91
								c-0.72-1.35-1.25-2.73-1.98-4.04c1.01,1.12,1.7,2.49,2.6,3.65c0.84,1.18,1.89,2.23,3.14,2.44c1.21,0.22,2.61-0.34,3.47-1.24
								c0.43-0.45,0.73-0.99,0.79-1.54c0.03-0.28,0.02-0.57-0.05-0.83c-0.07-0.28-0.21-0.65-0.33-0.94
								c-0.96-2.53-3.87-4.07-5.4-6.92c-0.75-1.37-1.27-2.88-1.34-4.46c-0.01-0.79,0.1-1.58,0.4-2.31
								C100.2,74.4,100.72,73.78,101.33,73.36z"/>
						</g>
					</g>
				</g>
				<g>
					<g>
						<path class="st2" d="M48.67,182.75c4.89-0.87,13.53,0.58,19.29,0.29c0.86,6.05,0.58,19.01,0.58,19.01
							c-5.76,1.15-14.4,0.57-20.45,0.29C47.74,202.19,48.67,182.75,48.67,182.75z"/>
					</g>
					<g>
						<path class="st2" d="M152.76,182.75c-4.89-0.87-13.53,0.58-19.29,0.29c-0.86,6.05-0.57,19.01-0.57,19.01
							c5.76,1.15,14.4,0.57,20.44,0.29C153.69,202.19,152.76,182.75,152.76,182.75z"/>
					</g>
					<g>
						<path class="st4" d="M81.08,141.6c0,0,17.66,7.68,38.39,0.38v24.76h-38.2L81.08,141.6z"/>
						<g>
							<path class="st6" d="M151.04,153.09c-1.73-3.6-4.74-4.6-8.21-6.33c-6.91-3.46-19.29-9.21-19.29-9.21
								c-3.64,2.35-16.37,11.11-22.82,15.74c-6.45-4.64-19.18-13.4-22.82-15.74c0,0-12.38,5.76-19.29,9.21
								c-3.47,1.73-6.48,2.73-8.21,6.33c-1.29,2.74-5.62,31.82-5.62,31.82c0.43,0.43,9.65,1.73,22.46,1.01
								c0.29,6.34,0.29,19.29,0.29,19.29c-0.19-0.28,16.48-0.32,27.93-0.31l0,0.02c0,0,2.08-0.01,5.26-0.01
								c3.17,0.01,5.26,0.01,5.26,0.01l0-0.02c11.45-0.01,28.12,0.03,27.93,0.31c0,0,0-12.96,0.29-19.29
								c12.81,0.72,22.03-0.57,22.46-1.01C156.65,184.91,152.33,155.82,151.04,153.09z"/>
						</g>
						<path class="st7" d="M129.17,175.05c0,1.19-0.97,2.16-2.16,2.16h-12.09c-1.19,0-2.16-0.97-2.16-2.16l0,0
							c0-1.19,0.97-2.16,2.16-2.16h12.09C128.2,172.89,129.17,173.86,129.17,175.05L129.17,175.05z"/>
						<g>
							<defs>
								<path id="SVGID_3_" d="M151.04,153.09c-1.73-3.6-4.74-4.6-8.21-6.33c-6.91-3.46-19.29-9.21-19.29-9.21
									c-3.64,2.35-16.37,11.11-22.82,15.74c-6.45-4.64-19.18-13.4-22.82-15.74c0,0-12.38,5.76-19.29,9.21
									c-3.47,1.73-6.48,2.73-8.21,6.33c-1.29,2.74-5.62,31.82-5.62,31.82c0.43,0.43,9.65,1.73,22.46,1.01
									c0.29,6.34,0.29,19.29,0.29,19.29c-0.19-0.28,16.48-0.32,27.93-0.31l0,0.02c0,0,2.08-0.01,5.26-0.01
									c3.17,0.01,5.26,0.01,5.26,0.01l0-0.02c11.45-0.01,28.12,0.03,27.93,0.31c0,0,0-12.96,0.29-19.29
									c12.81,0.72,22.03-0.57,22.46-1.01C156.65,184.91,152.33,155.82,151.04,153.09z"/>
							</defs>
							<clipPath id="SVGID_4_">
								<use xlink:href="#SVGID_3_"  style="overflow:visible;"/>
							</clipPath>
							<g class="st8">
								<polyline class="st9" points="70.41,138.55 101.07,159.57 130.45,138.26 								"/>
								<path class="st9" d="M43.77,180.59c0,0,13.68,3.31,23.18,1.15"/>
								<path class="st9" d="M157.95,180.59c0,0-13.68,3.31-23.18,1.15"/>
							</g>
						</g>
						<g>
							<g>
								<path class="st7" d="M67.44,193.65c-0.25-2.21-0.44-4.42-0.61-6.63c-0.2-2.21-0.33-4.42-0.51-6.61
									c-0.23-2.19-0.37-4.43-0.39-6.65c0.01-2.23,0.07-4.45,0.3-6.66c0.23,2.21,0.35,4.43,0.54,6.63
									c0.14,2.21,0.35,4.38,0.53,6.61c0.16,2.22,0.23,4.44,0.24,6.66C67.56,189.21,67.55,191.43,67.44,193.65z"/>
							</g>
							<g>
								<path class="st7" d="M64.12,175.26c-1.49-1.27-2.28-3.25-2.45-5.2c-0.16-1.95,0.28-4.02,1.49-5.55
									c-0.48,1.86-0.65,3.66-0.49,5.47C62.81,171.78,63.29,173.53,64.12,175.26z"/>
							</g>
						</g>
					</g>
					<g>
						<g>
							<path class="st7" d="M133.97,193.65c-0.11-2.22-0.13-4.44-0.1-6.66c0.01-2.22,0.08-4.44,0.24-6.66
								c0.18-2.22,0.39-4.4,0.53-6.61c0.18-2.2,0.3-4.41,0.54-6.63c0.23,2.22,0.29,4.44,0.3,6.66c-0.02,2.22-0.16,4.46-0.39,6.65
								c-0.18,2.2-0.31,4.41-0.51,6.61C134.42,189.24,134.23,191.45,133.97,193.65z"/>
						</g>
						<g>
							<path class="st7" d="M137.29,175.26c0.83-1.73,1.31-3.47,1.46-5.28c0.16-1.81-0.02-3.61-0.49-5.47
								c1.21,1.53,1.65,3.6,1.49,5.55C139.57,172.01,138.78,173.99,137.29,175.26z"/>
						</g>
					</g>
				</g>
				<g>
					<g>
						<path class="st5" d="M74.48,80.95c-2.29,0.24-4.4-6.25-4.86-7.85c-0.86-3-1.05-6.13-1.24-9.23c-0.05-0.79-0.8-6.2,0.14-6.57
							c-0.73,0.28-1.25,0.96-1.67,1.62c0.03-1.6-0.06-3.23,0.79-4.62c-0.51,0.49-1.1,0.97-1.51,1.46
							c-0.54-5.47,4.44-12.07,8.45-15.38c3.05-2.48,8.54-4.78,12.61-4.78c-3.66-0.96-7.53,0-11.19,0c7.93-4.59,24-7.08,31.73-0.57
							c0-2.29-0.41-4.4,1.22-6.31c-0.21,2.48,0.81,4.97,1.22,7.45c0.81-2.68,3.26-6.31,6.1-6.88c0,2.24-1.67,3.74-2.31,5.73
							c-0.75,2.34,1.16,2.3,2.96,2.88c2.47,0.81,4.77,1.75,6.86,3.36c2.43,1.87,5.79,6.28,5.99,9.46c-1-0.72-2.05-1.68-3.18-2.26
							c1.89,0.97,2.74,5.77,2.98,7.62c0.85,6.58,0.86,13.73-1.74,19.95c-0.61,1.46-2.55,5.11-4.22,5.71
							c-0.18,0.07-1.6-16.87-1.69-17.82c-0.13-1.32-1.32-6.77-0.56-7.68c-1.82,2.2-1.38,4.7-2.38,4.36
							c-3.12-1.08-4.33-10.29-5.14-12.77c-0.41,1.91-0.61,4.02-0.81,5.92c-0.41-0.38-0.61-0.76-0.81-1.14l-2.24-6.12
							c0.61,4.97-6.51,8.79-9.56,11.66c1.02-2.68,2.04-5.17,2.85-7.84c-3.26,5.16-9.53,6.67-16.03,8.39
							c2.44-2.2,3.31-5.82,4.82-8.64c-1.79,2.94-4.34,5.48-6.82,7.84c-2.4,2.29-5.05,3.21-7.79,4.82c0.04-1.35,0.21-2.73-0.18-4.01
							c0.09,1.83-0.29,3.66-0.72,5.43C75.4,68.91,74.84,79.27,74.48,80.95z"/>
					</g>
				</g>
			</g>
		</g>
	</g>
</g>
</svg>
